<svg id="Layer_1" xmlns="http://www.w3.org/2000/svg" width="500" height="257.7" viewBox="0 0 500 257.7"><style>.st0{fill:#B11F24;} .st1{fill:#F3D139;}</style><path class="st0" d="M15.1 201.4l-2.4 8.9L0 206.9l9.1-33.7 12.6 3.4-2.4 8.9 35.6 9.7-4.3 15.9-35.5-9.7zm32.2-.8l-34.9-9.5 2.8-10.3-1.7-.5-6.1 22.6 1.7.5 2.8-10.3 34.9 9.5.5-2zM13.9 160.2l7.7-15.4c1.4-2.9 3.1-5.3 5.1-7.4 2-2.1 4.1-3.6 6.5-4.7 2.4-1.1 4.9-1.5 7.6-1.5 2.7.1 5.4.8 8.2 2.2 2.2 1.1 4 2.4 5.2 3.8 1.3 1.4 2.2 2.7 2.9 4 .7 1.5 1.2 3 1.4 4.5l18.9-1-8.3 16.8-14.7 1.1 11.3 5.6-7.1 14.3-44.7-22.3zm36.1.6c.9-1.7 1.5-3.5 2-5.4l13.9-1 1-2.1-14.6 1.1c.4-2.8 0-5.4-1.1-7.7s-3-4.2-5.8-5.6c-2-1-3.9-1.5-5.7-1.4-1.9 0-3.6.4-5.3 1.3-1.7.8-3.2 2-4.6 3.5-1.4 1.5-2.6 3.3-3.7 5.4l-3.6 7.2 34 16.9.9-1.7-10.2-5.1 2.8-5.4zm-4.3 4.7l-20.6-10.2 2.7-5.5c2-4.1 4.5-6.8 7.4-8.2 2.9-1.4 6.1-1.3 9.4.4 3.3 1.6 5.3 4.1 5.9 7.2.6 3.2-.1 6.8-2.1 10.9l-2.7 5.4zm-2.7-8.6l.4-.7c.8-1.7 1.2-3.3 1-4.9-.2-1.6-1.1-2.8-2.9-3.7-1.8-.9-3.4-.9-4.7-.1-1.3.8-2.4 2.1-3.3 3.8l-.4.7 9.9 4.9zM52.2 96.5l7.7-9.2 50.4 17.7-10.1 12-4.5-1.6-9.8 11.6 2.4 4.2-10.1 12-26-46.7zm28.6 34.3l-1.9-3.5 15.9-18.9 3.8 1.3 1.4-1.6-38.5-13.4-1.8 2.2 19.7 35.5 1.4-1.6zM62 96.9l31 10.8-15.1 17.9L62 96.9zm22.6 14.6l-8.9-3.1 4.5 8.2 4.4-5.1zM85 62.4L105.2 74l-7-22.3 13.6-10.9L128 91.9l-10.1 8.1-46.5-26.7L85 62.4zm34.8 28.4l-12.3-38.9-1.6 1.3L117 88.6 84.9 70.2l-1.6 1.3 35.4 20.3 1.1-1zM123.2 34.9l26.2-13.4 6 11.7-12 6.1 2.5 4.9 11.8-6 5.6 11.1-11.8 6 2.6 5.1 12.5-6.4 6 11.7-26.7 13.6-22.7-44.4zm41.7 28l-.8-1.6-13.3 6.8-7.5-14.6L156 47l-.8-1.6-12.7 6.5-7.4-14.4 13.3-6.8-.8-1.6-15.1 7.7 17.3 33.8 15.1-7.7zM163.5 15.8l15.9-4.9 10.9 35.2 13.2-4.1 3.9 12.5-29 9-14.9-47.7zm38.1 34.3l-.5-1.7-16 5-10.7-34.6-1.9.6 11.2 36.3 17.9-5.6zM244.2 13.4l-9.2.1-.2-13.1 34.9-.4.2 13.1-9.2.1.5 36.8-16.5.2-.5-36.8zm9.6 30.8L253.3 8l10.7-.1V6.1l-23.4.3v1.8l10.7-.2.5 36.2h2zM284.2 1.4l16.9 3.3c3.1.6 6 1.6 8.5 3s4.6 3 6.2 5c1.6 2 2.8 4.3 3.4 6.9.6 2.6.6 5.4 0 8.5-.5 2.5-1.2 4.5-2.3 6-1 1.6-2.1 2.9-3.1 3.8-1.2 1.1-2.5 1.9-3.9 2.6l6 18-18.4-3.6-4.9-13.9-2.5 12.4-15.7-3.1 9.8-48.9zm9 35c1.9.4 3.8.5 5.7.5l4.7 13.1 2.3.4-4.9-13.8c2.8-.4 5.2-1.4 7.2-3.1 1.9-1.6 3.2-4 3.8-7.1.4-2.2.4-4.1-.1-5.9-.5-1.8-1.4-3.4-2.6-4.8-1.2-1.4-2.8-2.6-4.6-3.5-1.8-.9-3.9-1.7-6.2-2.1l-7.9-1.6-7.5 37.5 1.9.4 2.2-11.2 6 1.2zm-5.7-3l4.5-22.6 6 1.2c4.5.9 7.8 2.5 9.9 5 2.1 2.5 2.8 5.5 2.1 9.1-.7 3.6-2.5 6.2-5.4 7.6-2.9 1.4-6.6 1.7-11 .8l-6.1-1.1zm7.6-4.8l.8.2c1.9.4 3.5.3 5-.3s2.4-1.8 2.8-3.8c.4-2 0-3.5-1.1-4.6-1.1-1.1-2.6-1.8-4.5-2.2l-.8-.2-2.2 10.9zM355.8 21.5l10.9 5-3.9 53.3-14.3-6.6.4-4.8-13.7-6.4-3.4 3.4-14.3-6.6 38.3-37.3zm-25.5 36.6l2.9-2.8 22.4 10.4-.3 4 1.9.9 2.9-40.5-2.6-1.2-29.1 28.4 1.9.8zm27.7-27l-2.3 32.7-21.2-9.8L358 31.1zm-8.2 25.6l.6-9.4-6.7 6.5 6.1 2.9zM375.9 59.2c2.4-3.2 5.1-5.6 8.2-7.4 3.1-1.7 6.2-2.8 9.5-3.2 3.3-.4 6.6-.1 9.9.9 3.3 1 6.4 2.5 9.2 4.7 2.3 1.7 4.1 3.5 5.6 5.2 1.4 1.8 2.6 3.4 3.4 5 1 1.8 1.7 3.4 2.2 5l-14.6 6.3c-.3-1-.6-1.9-1.1-3-.4-.8-1-1.7-1.7-2.8-.7-1-1.7-2-2.9-2.9-1.2-.9-2.5-1.6-3.9-1.9-1.4-.3-2.7-.4-4.1-.3-1.3.2-2.6.6-3.8 1.3-1.2.7-2.2 1.6-3.1 2.8-.9 1.2-1.5 2.4-1.8 3.8-.3 1.4-.4 2.7-.1 4.1.2 1.4.7 2.7 1.5 3.9.7 1.3 1.8 2.4 3 3.3 1.3 1 2.5 1.7 3.8 2.1 1.2.4 2.3.7 3.3.8 1.1.2 2.2.2 3.3 0l-2.1 15.8c-1.7.1-3.6-.1-5.6-.6-1.7-.4-3.6-1-5.8-1.9-2.2-.9-4.4-2.2-6.7-3.9-3.1-2.3-5.6-5-7.4-8-1.9-3-3.1-6.1-3.6-9.4-.5-3.3-.4-6.6.5-10 1-3.3 2.6-6.6 4.9-9.7zm7.5 5.7c1.4-1.9 3.1-3.5 5.1-4.6 1.9-1.2 3.9-1.9 6.1-2.3 2.1-.3 4.3-.2 6.6.4 2.3.6 4.4 1.7 6.5 3.3 1 .8 1.9 1.6 2.6 2.3.7.8 1.3 1.4 1.7 2.1.5.7.9 1.4 1.2 2l1.9-.8c-.4-.8-.9-1.5-1.4-2.3-.5-.7-1.2-1.5-1.9-2.3-.8-.8-1.7-1.7-2.9-2.5-2-1.5-4.2-2.6-6.6-3.3-2.4-.7-4.8-.9-7.2-.6-2.4.3-4.8 1-7.1 2.3-2.3 1.2-4.3 3-6.1 5.3-1.8 2.3-3 4.8-3.6 7.3-.6 2.5-.7 4.9-.3 7.4.4 2.4 1.3 4.7 2.7 6.9 1.4 2.2 3.1 4.1 5.3 5.7 1.2.9 2.3 1.6 3.5 2.1 1.1.5 2.1.9 2.9 1.2 1 .3 1.9.5 2.8.6l.2-2.1c-.8 0-1.6-.2-2.5-.5-.8-.2-1.7-.5-2.6-1-1-.5-2-1.1-3.1-1.9-2.2-1.7-3.9-3.5-5.1-5.5-1.2-2-2-4.1-2.2-6.3-.3-2.2-.1-4.3.5-6.5.6-2.4 1.6-4.5 3-6.4zM437.3 76.7l10.4 12.4-8.9 7.4 14.9-.1 12.5 15-28.8 1.1-9 31.6-12.4-14.8 5-18-11.9 9.9-10.4-12.4 38.6-32.1zm-27.8 35.4l7.8-6.5 12.4-.2-6.5 23.1 1.5 1.8 7.1-24.9 21.4-.3-1.5-1.8-32 .4 19.1-15.9-1.2-1.5-29.2 24.3 1.1 1.5zM473.1 123.4l13.9 25.9-11.6 6.2-6.4-11.9-4.9 2.6 6.3 11.7-11 5.9-6.3-11.7-5.1 2.7 6.6 12.3-11.6 6.2-13.9-26.3 44-23.6zm-27.2 42.3l1.6-.8-7.1-13.2 14.5-7.7 6.7 12.5 1.6-.8-6.7-12.5 14.3-7.6 7.1 13.2 1.6-.8-8-14.9L438 151l7.9 14.7zM493.6 164.1l5 16.5c.9 3.1 1.4 6 1.4 8.9 0 2.9-.5 5.5-1.5 7.9-1 2.4-2.5 4.5-4.5 6.3-2 1.8-4.5 3.1-7.5 4-2.4.7-4.5 1-6.4.9-1.9-.2-3.5-.5-4.8-1-1.5-.6-2.9-1.3-4.1-2.3l-13 13.8-5.5-17.9 9.9-10.9-12.1 3.7-4.6-15.3 47.7-14.6zM467 188.5c.6 1.9 1.3 3.6 2.2 5.3l-9.4 10.3.7 2.2 9.9-10.8c1.7 2.3 3.7 3.9 6.1 4.9 2.4 1 5 1 8 .1 2.1-.6 3.8-1.6 5.1-2.9 1.3-1.3 2.3-2.8 3-4.5.6-1.7 1-3.6.9-5.7 0-2.1-.4-4.2-1.1-6.5l-2.4-7.7-36.3 11.1.6 1.9 10.9-3.3 1.8 5.6zm-.1-6.4l22-6.7 1.8 5.9c1.3 4.3 1.4 8 .2 11.1-1.2 3-3.5 5.1-7 6.2-3.5 1.1-6.6.7-9.3-1.2-2.6-1.9-4.6-5-5.9-9.3l-1.8-6zm7.9 4.4l.2.8c.6 1.8 1.4 3.2 2.6 4.2 1.2 1 2.8 1.2 4.7.7 1.9-.6 3.1-1.6 3.5-3.1.4-1.5.4-3.2-.2-5l-.2-.8-10.6 3.2z"/><path class="st1" d="M253 93.7c-90.5 0-163.9 73.4-163.9 163.9h327.8c0-90.5-73.4-163.9-163.9-163.9zm0 2c89.5 0 162.3 71.8 163.9 161H89.1c1.6-89.2 74.3-161 163.9-161z"/><g><path class="st1" d="M252.2 56.7c-110.9 0-199.3 89.9-199.3 200.9h23.8c0-96.9 78.6-175.5 175.5-175.5s175.5 78.6 175.5 175.5h25.4c0-110.9-90-200.9-200.9-200.9z"/></g><g><path class="st1" d="M440.1 256.2l-23.3.2v1.2h23.3v-1.4zM278.9 95.8l3.7-23c-.9-.1-1.9-.3-2.8-.4l-3.3 23.1 2.4.3zM276.9 72c-.9-.1-1.9-.2-2.8-.3l-2.6 23.1c.8.1 1.6.2 2.5.3l2.9-23.1zM271.3 71.4c-.9-.1-1.9-.2-2.8-.3l-1.9 23.2c.8.1 1.7.1 2.5.2l2.2-23.1zM254.2 93.8l.2-23.3h-2.8l.2 23.3h2.4zM265.7 70.9c-.9-.1-1.9-.1-2.8-.2L261.7 94c.8 0 1.6.1 2.5.1l1.5-23.2zM260.1 70.6c-.9 0-1.9-.1-2.8-.1l-.5 23.3c.8 0 1.6 0 2.5.1l.8-23.3zM307.6 103.1l7.8-22-2.7-.9-7.4 22.1c.8.3 1.5.5 2.3.8zM302.9 101.5l7.1-22.2c-.9-.3-1.8-.6-2.7-.8l-6.8 22.3c.9.2 1.6.5 2.4.7zM288.6 97.7l5-22.7c-.9-.2-1.8-.4-2.8-.6l-4.7 22.8c.9.1 1.7.3 2.5.5zM298.2 100.1l6.4-22.4c-.9-.3-1.8-.5-2.7-.8l-6.1 22.5c.8.2 1.6.5 2.4.7zM283.8 96.7l4.3-22.9c-.9-.2-1.9-.3-2.8-.5l-4 22.9c.8.2 1.7.3 2.5.5zM196 103.9l-8.1-21.8c-.9.3-1.8.7-2.7 1l8.4 21.7c.9-.3 1.7-.6 2.4-.9zM210.2 99.4l-6.1-22.5c-.9.2-1.8.5-2.7.8l6.4 22.4c.8-.3 1.6-.5 2.4-.7zM219.8 97.1l-4.7-22.8c-.9.2-1.8.4-2.8.6l5 22.7c.9-.1 1.7-.3 2.5-.5zM215 98.2l-5.4-22.7c-.9.2-1.8.4-2.7.7l5.7 22.6 2.4-.6zM249.3 93.8l-.5-23.3c-.9 0-1.9 0-2.8.1l.9 23.3c.7 0 1.6-.1 2.4-.1zM200.7 102.3l-7.4-22.1-2.7.9 7.8 22c.7-.3 1.5-.6 2.3-.8zM312.3 104.8l8.4-21.7c-.9-.3-1.8-.7-2.6-1l-8.1 21.8c.7.3 1.5.6 2.3.9zM205.4 100.8l-6.7-22.3c-.9.3-1.8.6-2.7.8l7.1 22.2c.7-.2 1.5-.5 2.3-.7zM244.3 94l-1.2-23.3c-.9 0-1.9.1-2.8.2l1.6 23.2c.8 0 1.6-.1 2.4-.1zM239.4 94.3l-1.9-23.2c-.9.1-1.9.2-2.8.3l2.2 23.2c.9-.1 1.7-.2 2.5-.3zM229.6 95.4l-3.3-23.1c-.9.1-1.9.3-2.8.4l3.6 23c.8 0 1.7-.2 2.5-.3zM224.7 96.2l-4-22.9c-.9.2-1.9.3-2.8.5l4.3 22.9c.8-.2 1.7-.4 2.5-.5zM234.5 94.8l-2.6-23.1c-.9.1-1.9.2-2.8.3l3 23.1c.7-.1 1.6-.2 2.4-.3zM385.6 161.4l18.8-13.7c-.6-.8-1.1-1.5-1.7-2.3l-18.6 14c.5.7 1 1.4 1.5 2zM393.8 173.8l20-11.9-1.5-2.4-19.8 12.2c.4.7.9 1.4 1.3 2.1zM388.5 165.5l19.2-13.1c-.5-.8-1.1-1.6-1.6-2.3l-19 13.4c.4.6.9 1.3 1.4 2zM391.2 169.6l19.6-12.5-1.5-2.4-19.4 12.8c.4.7.8 1.4 1.3 2.1zM321.3 108.7l9.7-21.2c-.9-.4-1.7-.8-2.6-1.2l-9.4 21.3c.8.4 1.6.7 2.3 1.1zM398.6 182.5l20.7-10.7c-.4-.8-.9-1.7-1.3-2.5l-20.5 11c.3.7.7 1.5 1.1 2.2zM396.3 178.1l20.4-11.3c-.5-.8-.9-1.7-1.4-2.5L395 176c.5.7.9 1.4 1.3 2.1zM400.8 186.9l21-10.1c-.4-.8-.8-1.7-1.2-2.5l-20.9 10.4c.4.7.8 1.5 1.1 2.2zM366.1 139.1l16.1-16.8c-.7-.6-1.4-1.3-2.1-1.9l-15.8 17.1c.6.4 1.2 1 1.8 1.6zM373 146.1l17.1-15.9c-.6-.7-1.3-1.4-1.9-2.1l-16.8 16.1c.5.7 1.1 1.3 1.6 1.9zM376.3 149.8l17.5-15.3c-.6-.7-1.2-1.4-1.9-2.1L374.7 148c.6.6 1.1 1.2 1.6 1.8zM382.6 157.5l18.4-14.2c-.6-.7-1.2-1.5-1.7-2.2l-18.2 14.5c.5.5 1 1.2 1.5 1.9zM379.6 153.6l18-14.8c-.6-.7-1.2-1.5-1.8-2.2L378 151.7c.5.6 1 1.2 1.6 1.9zM186.8 107.7l-9.4-21.3c-.9.4-1.7.8-2.6 1.2l9.7 21.2c.8-.5 1.6-.8 2.3-1.1zM342.9 120.6l12.8-19.5-2.4-1.5-12.5 19.6c.7.5 1.4 1 2.1 1.4zM402.9 191.4l21.3-9.4c-.4-.9-.8-1.7-1.2-2.6l-21.2 9.7c.4.8.8 1.6 1.1 2.3zM334.5 115.5l11.6-20.2c-.8-.5-1.6-.9-2.5-1.4l-11.3 20.4c.8.3 1.5.7 2.2 1.2zM325.8 110.8l10.4-20.9c-.8-.4-1.7-.8-2.5-1.2l-10 21c.6.4 1.4.7 2.1 1.1zM330.2 113.1l11-20.5c-.8-.4-1.7-.9-2.5-1.3L328 111.9c.7.4 1.4.8 2.2 1.2zM338.7 118l12.2-19.8-2.4-1.5-11.9 20c.7.4 1.4.9 2.1 1.3zM358.7 132.5l15-17.8c-.7-.6-1.4-1.2-2.2-1.8l-14.8 18c.8.5 1.4 1 2 1.6zM347 123.4l13.4-19.1c-.8-.5-1.5-1.1-2.3-1.6L344.9 122c.7.5 1.4.9 2.1 1.4zM362.4 135.7l15.6-17.3c-.7-.6-1.4-1.3-2.1-1.9l-15.3 17.6c.6.5 1.2 1.1 1.8 1.6zM351 126.3l13.9-18.7c-.8-.6-1.5-1.1-2.3-1.7L349 124.8c.7.5 1.3 1 2 1.5zM354.9 129.3l14.5-18.2c-.7-.6-1.5-1.2-2.2-1.7L353 127.8c.6.5 1.3 1 1.9 1.5zM293.4 98.8l5.7-22.6c-.9-.2-1.8-.5-2.7-.7L291 98.2l2.4.6zM75.6 197.8l22.1 7.4c.3-.8.5-1.6.8-2.3l-22-7.8-.9 2.7zM73.9 203.2l22.3 6.8c.2-.8.5-1.6.7-2.4l-22.2-7.1c-.3.9-.5 1.8-.8 2.7zM72.3 208.7l22.5 6.1c.2-.8.4-1.6.7-2.4L73.1 206c-.3.8-.5 1.8-.8 2.7zM427.5 189.9l-21.7 8.4c.3.8.6 1.6.9 2.3l21.8-8.1c-.4-.9-.7-1.7-1-2.6z"/><path class="st1" d="M404.8 196l21.6-8.8c-.4-.9-.7-1.8-1.1-2.6l-21.4 9.1c.2.5.4.9.6 1.4l-33.4 13.6c-.2-.4-.3-.8-.5-1.2-6.4-15.2-15.6-28.8-27.4-40.6l-.3-.3 25.4-25.4c.4.4.9.8 1.3 1.3l16.6-16.4-2-2-16.3 16.6.3.3-25.4 25.4c-11.6-11.5-25.1-20.6-40.1-26.9-.2-.1-.4-.2-.6-.2l13.9-33c.3.1.6.2.8.3l9.1-21.4c-.9-.4-1.7-.7-2.6-1.1l-8.8 21.6c.4.2.8.3 1.2.5l-13.9 33c-14.2-5.9-29.2-9.1-44.6-9.6l-4.3-24.1v24c-16.8 0-33.2 3.2-48.6 9.6L190.9 106c.2-.1.4-.1.5-.2l-8.8-21.6c-.9.4-1.7.7-2.6 1.1l9.1 21.4 1.5-.6 13.5 33.2c-.3.1-.6.2-.8.3-15.2 6.4-28.8 15.6-40.6 27.4l-.1.1-25.4-25.4.6-.6-16.4-16.6-2 2 16.6 16.3.9-.9 25.4 25.4c-11.6 11.7-20.7 25.2-27.1 40.3 0 .1-.1.1-.1.2l-36.9-15.6-17.8-7.5c-.4.9-.7 1.7-1.1 2.6l21.6 8.8.9-2.1 33.2 14c-6.5 15.6-9.8 32.2-9.8 49.2v.1H215v.1h37.1l.1.2.2-.1-.1-.1.3.1.1-.1h38v-.1H380.5v-.1c0-16.7-3.2-32.9-9.4-48.2l33.4-13.6c.2.2.2.4.3.6zM343 167.1c11.7 11.7 20.9 25.3 27.3 40.5.2.4.3.8.5 1.2l-33.2 13.5c-4.5-11-11.3-21.2-20-29.8l-.3-.3 25.3-25.3c.3 0 .3.1.4.2zm-68.3 60.5l-2.9-16.4 16.2-38.4c10.7 4.4 20.6 11 29.1 19.4l-38.6 38.6c-1.2-1.2-2.5-2.2-3.8-3.2zm-3-16.9l-7.9-44.1c8.3 1 16.3 3 23.9 6.2l-16 37.9zm-18.7 9.7c-5.1 0-9.9 1.1-14.3 3l-20.6-50.6c10.9-4.5 22.7-6.9 34.9-6.9v54.5zm-14.6 3.1c-4.3 1.9-8.1 4.5-11.4 7.8l-38.6-38.6.1-.1c8.6-8.6 18.5-15.2 29.4-19.7l20.5 50.6zm-11.6 7.9c-3.3 3.3-6 7.2-8 11.5l-49.9-21.1c4.5-10.7 11-20.5 19.4-29l38.5 38.6zm51.9-.5l38.6-38.6.3.3c8.7 8.7 15.4 18.8 19.9 29.8l-50.2 20.4c-2.2-4.5-5.1-8.5-8.6-11.9zm23.9-91.1c15 6.3 28.4 15.4 40 26.8L317.2 192c-8.5-8.4-18.4-15-29.2-19.4l13.9-33c.3.1.5.1.7.2zm-.9-.3l-13.9 33c-7.6-3.1-15.7-5.2-24-6.2l-6.5-36.4c15.4.5 30.3 3.7 44.4 9.6zm-48.7-9.7v35.8c-12.2 0-24.1 2.4-35 6.9l-13.5-33.2c15.4-6.3 31.7-9.5 48.5-9.5zm-90.1 37.3c11.7-11.7 25.3-20.9 40.5-27.3.3-.1.6-.2.8-.3l13.5 33.2c-10.9 4.5-20.9 11.2-29.5 19.8l-.1.1-25.2-25.5zm-27.3 40.5c6.4-15.1 15.5-28.6 27.1-40.2l25.3 25.3c-8.4 8.5-15 18.3-19.5 29l-33-13.9c.1-.1.1-.1.1-.2zm-10 49.4c0-17 3.3-33.5 9.8-49l33 13.9c-4.6 11-7 22.8-7 35.1h-35.8zm36.1 0c0-12.2 2.4-24 7-35l49.9 21.1c-2 4.3-3.2 9-3.5 13.9h-53.4zm129.1 0c-.3-4.9-1.5-9.7-3.5-14l50.2-20.4c4.4 10.8 6.7 22.4 6.7 34.4h-53.4zm89.5 0h-35.8c0-12-2.3-23.7-6.8-34.5l33.2-13.5c6.3 15.3 9.4 31.4 9.4 48z"/><path class="st1" d="M77.5 192.5l21.8 8.1c.3-.8.6-1.5.9-2.3l-21.7-8.4c-.3.8-.7 1.7-1 2.6zM70.9 214.1l22.7 5.4.6-2.4-22.6-5.7c-.2.9-.5 1.8-.7 2.7zM67 236.4l23.1 2.6c.1-.8.2-1.6.3-2.5l-23.1-3c0 1-.2 2-.3 2.9zM66.5 242l23.2 1.9c.1-.8.1-1.7.2-2.5l-23.2-2.3c0 1-.1 2-.2 2.9zM68.7 225.2l22.9 4c.1-.8.3-1.6.4-2.4l-22.9-4.4c-.1 1-.3 1.9-.4 2.8zM67.8 230.8l23.1 3.3c.1-.8.2-1.6.4-2.4l-23-3.7c-.3.9-.4 1.9-.5 2.8zM69.7 219.7l22.8 4.7c.2-.8.3-1.6.5-2.4l-22.7-5c-.2.8-.4 1.7-.6 2.7zM66.1 247.7l23.3 1.2c0-.8.1-1.7.1-2.5l-23.2-1.6c-.1 1-.1 1.9-.2 2.9zM438.6 233.7l-23.1 2.9c.1.8.2 1.6.3 2.5l23.1-2.6c-.1-1-.2-1.9-.3-2.8zM437.8 228.1l-23 3.6c.1.8.3 1.6.4 2.4l23.1-3.3c-.2-.9-.4-1.8-.5-2.7zM439.2 239.3l-23.2 2.3c.1.8.2 1.6.2 2.5l23.2-1.9c0-1.1-.1-2-.2-2.9zM439.7 244.9l-23.2 1.6c.1.8.1 1.6.1 2.5l23.3-1.2c-.1-1-.2-2-.2-2.9zM440 250.5l-23.3.9c0 .8.1 1.6.1 2.5l23.3-.5c-.1-1-.1-1.9-.1-2.9zM432.9 206l-22.4 6.4c.2.8.4 1.6.7 2.4l22.5-6.1c-.3-.9-.6-1.8-.8-2.7zM182.3 109.7l-10.1-21c-.9.4-1.7.8-2.5 1.2l10.4 20.8c.7-.2 1.5-.6 2.2-1zM429.4 195.2l-22 7.8c.3.8.5 1.6.8 2.3l22.1-7.4c-.2-.9-.6-1.8-.9-2.7zM434.4 211.5l-22.6 5.7.6 2.4 22.7-5.4c-.3-.9-.5-1.8-.7-2.7zM436.8 222.5l-22.9 4.4c.2.8.3 1.6.4 2.4l22.9-4c-.1-1-.2-1.9-.4-2.8zM435.7 217l-22.7 5c.2.8.4 1.6.5 2.4l22.8-4.7-.6-2.7zM431.2 200.6l-22.2 7.1c.2.8.5 1.6.7 2.4l22.3-6.8c-.2-.9-.5-1.8-.8-2.7zM149 131l-14.8-18c-.7.6-1.5 1.2-2.2 1.8l15.1 17.8c.6-.5 1.2-1.1 1.9-1.6zM156.8 124.9l-13.7-18.8c-.8.5-1.5 1.1-2.3 1.7l14 18.6c.7-.5 1.3-1 2-1.5zM152.8 127.9l-14.2-18.4c-.7.6-1.5 1.2-2.2 1.7l14.5 18.2c.6-.5 1.3-1 1.9-1.5zM145.2 134.2l-15.3-17.5c-.7.6-1.4 1.2-2.1 1.9l15.6 17.3c.6-.6 1.2-1.1 1.8-1.7zM141.5 137.5l-15.8-17.1c-.7.6-1.4 1.3-2.1 1.9l16.1 16.8c.6-.4 1.2-1 1.8-1.6zM131.1 148.1l-17.3-15.6c-.6.7-1.3 1.4-1.9 2.1l17.5 15.3c.6-.6 1.2-1.2 1.7-1.8zM134.5 144.5l-16.8-16.1c-.6.7-1.3 1.4-1.9 2.1l17.1 15.8c.4-.6 1-1.2 1.6-1.8zM160.9 122.1l-13.1-19.2c-.8.5-1.6 1.1-2.3 1.6l13.4 19c.6-.5 1.3-.9 2-1.4zM177.9 112l-10.7-20.7c-.8.4-1.7.9-2.5 1.3l11 20.5c.7-.4 1.5-.8 2.2-1.1zM173.5 114.3l-11.3-20.4c-.8.5-1.6.9-2.5 1.4l11.6 20.2c.8-.4 1.5-.8 2.2-1.2zM65.9 253.3l23.3.5c0-.8 0-1.7.1-2.5l-23.3-.8c0 .9-.1 1.9-.1 2.8zM165 119.4l-12.5-19.6-2.4 1.5 12.8 19.4c.7-.4 1.4-.9 2.1-1.3zM169.2 116.8l-11.9-20-2.4 1.5 12.2 19.8c.7-.5 1.4-.9 2.1-1.3zM108.4 180.4l-20.5-11c-.4.8-.9 1.7-1.3 2.5l20.7 10.7c.4-.8.8-1.5 1.1-2.2zM110.8 176.1l-20.2-11.6c-.5.8-.9 1.6-1.4 2.5l20.4 11.3c.4-.8.8-1.5 1.2-2.2zM113.4 171.8l-19.8-12.2-1.5 2.4 20 11.9c.4-.7.8-1.4 1.3-2.1zM104.1 189.2l-21.2-9.7c-.4.8-.8 1.7-1.2 2.6l21.3 9.4c.4-.8.7-1.5 1.1-2.3zM106.2 184.8l-20.9-10.4c-.4.8-.8 1.7-1.2 2.5l21 10.1c.4-.8.7-1.5 1.1-2.2zM118.8 163.6l-19.1-13.4c-.5.8-1.1 1.5-1.6 2.3l19.3 13.1c.5-.7.9-1.4 1.4-2zM124.7 155.7l-18.2-14.5c-.6.7-1.2 1.5-1.7 2.2l18.4 14.2c.5-.6 1-1.3 1.5-1.9zM121.7 159.6l-18.7-14c-.6.7-1.1 1.5-1.7 2.3l18.9 13.7c.5-.7 1-1.4 1.5-2zM116 167.7l-19.5-12.8-1.5 2.4 19.6 12.5c.5-.8 1-1.5 1.4-2.1zM127.9 151.8l-17.8-15c-.6.7-1.2 1.4-1.8 2.2l18 14.8c.5-.7 1-1.3 1.6-2zM65.9 257.6h23.3v-1.2l-23.3-.2v1.4z"/></g><path class="st0" d="M253 220.4V105.5l-21.7 122.1c6.1-4.5 13.6-7.2 21.7-7.2z"/></svg>